<svg xmlns="http://www.w3.org/2000/svg" width="1918" height="1130" viewBox="38 0 1918 1130"><g><g><path fill="#905dcf" d="M37 0h1920v1080H37z"/></g><g><path fill="#8a59c5" d="M37 0h600S507.098 6.501 462 131c-72.694 200.678-172.935 28.138-232 245-42.068 154.454-196.88 33.942-193 24z"/></g><g><path fill="#8a59c5" d="M37 790s30.352-106.96 136-106c122.336 1.11 264.573 234.919 456 208 118.053-16.602 136.496-137.337 278-205.001 78.93-37.743 219.675 55.154 277-121 76.113-233.885 330.44-30.643 456-201 164.467-223.143 317-75 317-75v800H37z"/></g><g><path fill="none" stroke="#7b48b7" stroke-miterlimit="50" d="M1963 750v0s-85.5-141.94-288-140c-202.5 1.94-360 169.09-510 240s-394.5 229.075-735 72-399 50-399 50v0"/></g><g><path fill="none" stroke="#7b48b7" stroke-miterlimit="50" d="M1977 345v0s-104.5-137.462-213-47c-108.5 90.462-108.5 212.548-311 201-202.5-11.548-186.5 69.577-280 182-93.5 112.422-157 48.07-207 48-50-.072-156.376 232.399-344 199-360-64.085-431-339.892-595-79"/></g><g><path fill="none" stroke="#7b48b7" stroke-miterlimit="50" d="M1965 385v0s-100.994-134.388-232 34c-97.608 125.46 32 144.054 78 131 46-13.055 138.5 18.074 152 113"/></g><g><path fill="#fff" d="M37 1039.999s103.336-70 262.062-70c135.452 0 311.242 70 497.571 70 264.892 0 553.222-319.287 772.969-350C1843.872 651.667 1957 780 1957 780v350H37z"/></g><g><path fill="none" stroke="#7b48b7" stroke-miterlimit="50" d="M1962 918v0s-174.5-306.897-614-80c-439.5 226.896-486 244.586-869 137C.854 840.687 1 1071 1 1071v0"/></g></g></svg>