<svg xmlns="http://www.w3.org/2000/svg" width="320" height="340" viewBox="0 0 320 340"><defs><clipPath id="v1g8a"><path fill="#fff" d="M130 80c71.797 0 130 58.203 130 130s-58.203 130-130 130S0 281.797 0 210 58.203 80 130 80z"/></clipPath></defs>
<g>
	<g><path fill="#efe1ff" d="M170 0c82.843 0 150 67.157 150 150 0 82.842-67.157 150-150 150S20 232.841 20 150C20 67.157 87.157 0 170 0z"/>
</g>
<g><path fill="none" stroke="#fff" stroke-linecap="round" stroke-linejoin="round" stroke-miterlimit="50" stroke-width="2" d="M130 80c71.797 0 130 58.203 130 130s-58.203 130-130 130S0 281.797 0 210 58.203 80 130 80z" clip-path="url(&quot;#v1g8a&quot;)"/></g><g><path fill="#ff7fae" d="M73 6c16.568 0 30 13.43 30 30 0 16.568-13.432 30-30 30-16.569 0-30-13.432-30-30C43 19.43 56.43 6 73 6z"/></g></g></svg>