<svg xmlns="http://www.w3.org/2000/svg" width="980" height="814" viewBox="0 0 980 814"><g><g><path fill="#eaf9ff" d="M220 255.999c384 42 285-170.402 470-109 101.114 33.56 100 318.964 50 438-66.41 158.105-177.414 231.796-362 228-379.882-7.81-542-599-158-557z"/></g><g><path fill="none" stroke="#9cd3e9" stroke-miterlimit="50" d="M433 792c241.49-20.047 393-330.337 300-552-93-221.664-159.596 92.212-517-7C-11.638 169.81-.52 428.66 41.547 534.427 96.804 673.354 220.175 809.667 433 792z"/></g><g><path fill="#905dcf" d="M511 150.999c6.5-5.75 21-2 21-2s12.122 4.366 9 19c-2.96 13.877-26.093 18.575-33 11-6.907-7.576-3.5-22.25 3-28zm-34 23c6 0 7.016 4.414 7.016 4.414s1.672 4.596-4.005 8.61c-5.384 3.805-12.915-.668-12.174-4.965.74-4.298 3.163-8.059 9.163-8.059zm140 43c-39-23-100-97.054-22-173 51.014-49.67 122-55.389 173-26 23.1 13.311 31.947 41.844 102 37 177-12.242 106.932 150.668 15 185-91.924 34.329-213.761 8.987-268-23z"/></g></g></svg>