<svg xmlns="http://www.w3.org/2000/svg" width="1890" height="1228" viewBox="40 0 1890 1228"><g><g><path fill="#8edbf9" d="M43 766s140.981-193.761 336-72C571.007 813.878 752.523 558.161 867.812 593.24 1013.348 637.523 1103 675.274 1232 628c210.793-77.25 56-317.664 507-296 215.323 10.342 224-240 224-240v891.602S1786.073 867.473 1565 866c-161.976-1.08-192.673 17.37-347 107-130 75.502-488.342 418.315-862 160-141.685-97.95-313-72.146-313-72.146z"/></g><g><path fill="none" stroke="#5dc3eb" stroke-miterlimit="50" d="M1978 312v0s-39.5 138.665-211 113c-171.5-25.666-286.98 21.156-381 207-116 229.289-366.5 107.191-506 67-116.275-33.5-264 168.697-498 92S28 914 28 914v0"/></g><g><path fill="none" stroke="#5dc3eb" stroke-miterlimit="50" d="M1971 1043v0s-271-272.773-645-141c-374 131.772-383.5 299.995-720 307-336.5 7.004-367-189.498-606-59"/></g><g><path fill="none" stroke="#5dc3eb" stroke-miterlimit="50" d="M1965 0v0s-8 307.161-281 330-252 99.696-363 239-262.5 98.181-456 43c-193.5-55.182-205.5 59.203-375 116-169.5 56.796-294-145.288-471 3"/></g><g><path fill="none" stroke="#5dc3eb" stroke-miterlimit="50" d="M2019 584v0s-300.5-149.806-437-18c-136.5 131.805 240 258.23 381 381"/></g></g></svg>