<svg xmlns="http://www.w3.org/2000/svg" width="513" height="257" viewBox="0 0 513 257"><g><g><path fill="#905dcf" d="M44 150.999c6.5-5.75 21-2 21-2s12.122 4.366 9 19c-2.96 13.877-26.093 18.575-33 11-6.907-7.576-3.5-22.25 3-28zm-34 23c6 0 7.016 4.414 7.016 4.414s1.672 4.596-4.005 8.61c-5.384 3.805-12.915-.668-12.174-4.965.74-4.298 3.163-8.059 9.163-8.059zm140 43c-39-23-100-97.054-22-173 51.014-49.67 122-55.389 173-26 23.1 13.311 31.947 41.844 102 37 177-12.242 106.932 150.668 15 185-91.924 34.329-213.761 8.987-268-23z"/></g></g></svg>