<svg xmlns="http://www.w3.org/2000/svg" width="360" height="321" viewBox="0 0 360 321"><defs><clipPath id="jjg3a"><path fill="#fff" d="M230 0c71.797 0 130 58.202 130 130 0 71.797-58.203 130-130 130s-130-58.203-130-130C100 58.202 158.203 0 230 0z"/></clipPath></defs><g><g><path fill="#d7f4ff" d="M150 21c82.843 0 150 67.157 150 150s-67.157 150-150 150S0 253.843 0 171 67.157 21 150 21z"/></g><g><path fill="#efe1ff" d="M230 0c71.797 0 130 58.202 130 130 0 71.797-58.203 130-130 130s-130-58.203-130-130C100 58.202 158.203 0 230 0z"/><path fill="none" stroke="#fff" stroke-linecap="round" stroke-linejoin="round" stroke-miterlimit="50" stroke-width="2" d="M230 0c71.797 0 130 58.202 130 130 0 71.797-58.203 130-130 130s-130-58.203-130-130C100 58.202 158.203 0 230 0z" clip-path="url(&quot;#jjg3a&quot;)"/></g><g><path fill="#8edbf9" d="M219 4c16.568 0 30 13.43 30 30 0 16.568-13.432 30-30 30-16.569 0-30-13.432-30-30 0-16.57 13.431-30 30-30z"/></g></g></svg>