<svg xmlns="http://www.w3.org/2000/svg" width="498" height="564" viewBox="0 0 498 564"><defs><clipPath id="9zkla"><path fill="#fff" d="M175 214c96.65 0 175 78.35 175 175s-78.35 175-175 175S0 485.65 0 389s78.35-175 175-175z"/></clipPath></defs><g><g><path fill="#efe1ff" d="M283 0C401.74 0 498 96.034 498 214.5S401.74 429 283 429 68 332.964 68 214.5 164.259 0 283 0z"/></g><g><path fill="none" stroke="#fff" stroke-linecap="round" stroke-linejoin="round" stroke-miterlimit="50" stroke-width="2" d="M175 214c96.65 0 175 78.35 175 175s-78.35 175-175 175S0 485.65 0 389s78.35-175 175-175z" clip-path="url(&quot;#9zkla&quot;)"/></g></g></svg>