<svg xmlns="http://www.w3.org/2000/svg" width="515" height="564" viewBox="0 0 515 564"><defs><clipPath id="mva9a"><path fill="#fff" d="M175 214c96.65 0 175 78.35 175 175s-78.35 175-175 175S0 485.65 0 389s78.35-175 175-175z"/></clipPath></defs><g><g><path fill="#efe1ff" d="M283 0C401.74 0 498 96.034 498 214.5S401.74 429 283 429 68 332.964 68 214.5 164.259 0 283 0z"/></g><g><path fill="#efe1ff" d="M175 214c96.65 0 175 78.35 175 175s-78.35 175-175 175S0 485.65 0 389s78.35-175 175-175z"/><path fill="none" stroke="#fff" stroke-linecap="round" stroke-linejoin="round" stroke-miterlimit="50" stroke-width="2" d="M175 214c96.65 0 175 78.35 175 175s-78.35 175-175 175S0 485.65 0 389s78.35-175 175-175z" clip-path="url(&quot;#mva9a&quot;)"/></g><g><path fill="#ff7fae" d="M90.603 54.258c22.834 0 41.344 18.489 41.344 41.295s-18.51 41.294-41.344 41.294S49.26 118.359 49.26 95.553c0-22.806 18.51-41.295 41.344-41.295z"/></g><g><path fill="#ff7fae" d="M490 489c13.807 0 25 11.193 25 25s-11.193 25-25 25-25-11.193-25-25 11.193-25 25-25z"/></g></g></svg>