<svg xmlns="http://www.w3.org/2000/svg" width="898" height="679" viewBox="0 0 898 679"><g><g><path fill="#dff6ff" d="M234 120.999c384 42 285-170.401 470-109 101.114 33.56 100 318.964 50 438-66.41 158.106-177.414 231.795-362 228-379.882-7.81-542-599-158-557z"/></g><g><path fill="none" stroke="#9cd3e9" stroke-miterlimit="50" d="M40 197c92.31-89.903 219.885 25.427 404-75C599.85 36.99 689-3.651 758 122c69 125.65 84.832 558.181-352 544C86 655.61-80.523 314.38 40 197z"/></g><g><path fill="none" stroke="#9cd3e9" stroke-miterlimit="50" d="M884 233c-24.579-67.293-153.5-89.637-226 36-72.5 125.636-239 60.87-260 130-21 69.129 169.5 125.371 267 104 97.5-21.372 282-97.517 219-270z"/></g></g></svg>