<svg xmlns="http://www.w3.org/2000/svg" width="1910" height="1118" viewBox="60 0 1910 1118"><g><g><path fill="#dff6ff" d="M1965 673s-129.992-174.072-336-72c-248.007 122.879-177.71-95.08-400-89-152.066 4.159-324 50.274-453 3-210.793-77.25-114-281.663-507-276C53.451 242.106 45-1 45-1v931.602S221.927 814.474 443 813c161.976-1.08 192.673 17.37 347 106.999 130 75.503 503.342 346.316 877 88 141.685-97.948 298-40.145 298-40.145z"/></g><g><path fill="none" stroke="#9cd3e9" stroke-miterlimit="50" d="M1974 606v0s-149-122.07-322-1c-131.139 91.775-235.275-56.062-379-78-181.744-27.742-292.5 24.41-428 18-135.5-6.411-198.5-100.121-302-216-103.5-115.88-219.5-105.62-352-104C58.5 226.62 15 29.36 9 26"/></g><g><path fill="none" stroke="#9cd3e9" stroke-miterlimit="50" d="M1989 845v0s-86-207.565-277-134-321.5 208.417-596 51C841.5 604.581 702 584.926 492 648 282 711.072 27 763.36 9 393"/></g><g><path fill="none" stroke="#9cd3e9" stroke-miterlimit="50" d="M0 909v0s317.5-172.546 539-45c221.5 127.545 418 293.96 691 234 273-59.96 581.5-213.028 746-75"/></g></g></svg>