<svg xmlns="http://www.w3.org/2000/svg" width="2560" height="1193" viewBox="134 0 2560 1193"><g><g><path fill="#905dcf" d="M134 23.588s281.78 391.77 618.088 97.188c375.09-328.554 809.61 139.68 1175.245-21.204 400-176.004 766.667 70.686 766.667 70.686v706.544s-28.588 436.54-633.333 236.132c-800-265.114-568 156.498-1293.334-94.669C435.857 903.484 134 1103.474 134 1103.474z"/></g><g><path fill="none" stroke="#a770eb" stroke-miterlimit="50" stroke-width="1.33" d="M2718 159.574v0s-248-199.696-692-40.001-620.015-47.813-881.333-90.67C708-42.71 528 484.497 114 76.905"/></g><g><path fill="none" stroke="#a770eb" stroke-miterlimit="50" stroke-width="1.33" d="M2714 329.578v0s-360.667-307.671-697.333-44.001C1680 549.247 970 45.926 574 393.58 178 741.233.667 290.91.667 290.91v0"/></g><g><path fill="none" stroke="#a770eb" stroke-miterlimit="50" stroke-width="1.33" d="M104.667 1045.599v0S382 886.683 754 1086.933c372 200.25 560-162.95 876-157.337 316 5.612 619.333 499.04 1082.667 117.335"/></g><g><path fill="none" stroke="#a770eb" stroke-miterlimit="50" stroke-width="1.33" d="M2716.667 791.591v0s-181.334 374.382-588 204.006c-406.667-170.376-585.334-144.944-912-50.669C890 1039.205 526 527.978 142 779.591"/></g><g><path fill="none" stroke="#a770eb" stroke-miterlimit="50" stroke-width="1.33" d="M2770 394.915v0s-290.914-199.081-513.333-40.001c-222.094 158.848-179.472 499.205 118.56 529.566 311.258 31.708 361.44-186.891 361.44-186.891v0"/></g></g></svg>