<svg xmlns="http://www.w3.org/2000/svg" width="2078" height="1007" viewBox="0 0 2078 1007"><g><g><path fill="#905dcf" d="M101 17.013s211.335 293.82 463.566 72.89C845.884-156.508 1171.773 194.66 1446 74c300-132 575 53.013 575 53.013v649.892S1999.56 1104.302 1546 954c-600-198.831-426 117.37-970-71-248.607-86.084-475 63.905-475 63.905z"/></g><g><path fill="none" stroke="#a770eb" stroke-miterlimit="50" d="M2039 119v0S1853-30.77 1520 89c-333 119.768-465.011-35.859-661-68C531.5-32.71 396.5 362.687 86 57"/></g><g><path fill="none" stroke="#a770eb" stroke-miterlimit="50" d="M2036 254v0s-270.5-230.748-523-33C1260.5 418.747 728 41.266 431 302 134 562.733 1 225 1 225v0"/></g><g><path fill="none" stroke="#a770eb" stroke-miterlimit="50" d="M79 896v0s208-119.184 487 31c279 150.183 420-122.21 657-118 237 4.21 464.5 374.27 812 88"/></g><g><path fill="none" stroke="#a770eb" stroke-miterlimit="50" d="M2038 668v0s-136 280.779-441 153c-305-127.78-439-108.705-684-38S395 470.294 107 659"/></g><g><path fill="none" stroke="#a770eb" stroke-miterlimit="50" d="M2078 363v0s-218.186-149.308-385-30c-166.57 119.132-134.604 374.394 88.92 397.164C2015.363 753.944 2053 590 2053 590v0"/></g></g></svg>