<svg xmlns="http://www.w3.org/2000/svg" width="1066" height="1096" viewBox="0 0 1066 1096"><g><g><path fill="#8054b6" d="M249 560.999c476 12.067 537-171.773 700-136 284.248 62.383 19.865 707.966-471 669-529-41.993-638.312-543.375-229-533z"/></g><g><path fill="none" stroke="#a770eb" stroke-miterlimit="50" d="M51 667c-53.185 136.089 106.528 404.746 535 372 405.714-31.007 91-234.94 253-301 162-66.061 151.5-173.456 72-203-79.5-29.545-163.5 119.052-405 83-241.5-36.053-392.952-109.767-455 49z"/></g><g><path fill="#905dcf" d="M661.277 556.842C277.215 514.862 376.23 727.157 191.2 665.786 90.07 632.243 91.185 346.984 141.193 228.008 207.613 69.983 318.636-3.67 503.25.125 883.195 7.93 1045.34 598.82 661.277 556.842z"/></g><g><path fill="none" stroke="#7b48b7" stroke-miterlimit="50" d="M130 627C7.657 560.868 67.71 119.128 354.22 44 640.467-31.057 826.5 288.05 760 426c-66.5 137.95-118 74.045-336 85-218 10.954-199.536 167.062-294 116z"/></g></g></svg>