<svg xmlns="http://www.w3.org/2000/svg" width="536" height="520" viewBox="0 0 536 520"><defs><clipPath id="tl2xa"><path fill="#fff" d="M130 260c71.797 0 130 58.203 130 130s-58.203 130-130 130S0 461.796 0 390s58.203-130 130-130z"/></clipPath></defs><g><g><path fill="#efe1ff" d="M240 0c110.457 0 200 89.543 200 200s-89.543 200-200 200S40 310.457 40 200 129.543 0 240 0z"/></g><g><path fill="#efe1ff" d="M130 260c71.797 0 130 58.203 130 130s-58.203 130-130 130S0 461.796 0 390s58.203-130 130-130z"/><path fill="none" stroke="#fff" stroke-linecap="round" stroke-linejoin="round" stroke-miterlimit="50" stroke-width="2" d="M130 260c71.797 0 130 58.203 130 130s-58.203 130-130 130S0 461.796 0 390s58.203-130 130-130z" clip-path="url(&quot;#tl2xa&quot;)"/></g><g><path fill="#ff7fae" d="M506 0c16.568 0 30 13.431 30 30 0 16.568-13.432 30-30 30-16.569 0-30-13.432-30-30 0-16.569 13.431-30 30-30z"/></g></g></svg>