<svg xmlns="http://www.w3.org/2000/svg" width="440" height="520" viewBox="0 0 440 520"><defs><clipPath id="er3va"><path fill="#fff" d="M130 260c71.797 0 130 58.203 130 130s-58.203 130-130 130S0 461.796 0 390s58.203-130 130-130z"/></clipPath></defs><g><g><path fill="#efe1ff" d="M240 0c110.457 0 200 89.543 200 200s-89.543 200-200 200S40 310.457 40 200 129.543 0 240 0z"/></g><g><path fill="none" stroke="#fff" stroke-linecap="round" stroke-linejoin="round" stroke-miterlimit="50" stroke-width="2" d="M130 260c71.797 0 130 58.203 130 130s-58.203 130-130 130S0 461.796 0 390s58.203-130 130-130z" clip-path="url(&quot;#er3va&quot;)"/></g></g></svg>