<svg width="21" height="24" viewBox="0 0 21 24" fill="none" xmlns="http://www.w3.org/2000/svg">
<path d="M9.09981 2.6C9.81778 2.6 10.3998 2.01797 10.3998 1.3C10.3998 0.58203 9.81778 0 9.09981 0C8.38184 0 7.7998 0.58203 7.7998 1.3C7.7998 2.01797 8.38184 2.6 9.09981 2.6Z" fill="#FD5E0F"/>
<path d="M12.5998 6.1C13.3178 6.1 13.8998 5.51797 13.8998 4.8C13.8998 4.08203 13.3178 3.5 12.5998 3.5C11.8818 3.5 11.2998 4.08203 11.2998 4.8C11.2998 5.51797 11.8818 6.1 12.5998 6.1Z" fill="#FD5E0F"/>
<path d="M15.9997 9.6C16.7177 9.6 17.2997 9.01797 17.2997 8.3C17.2997 7.58203 16.7177 7 15.9997 7C15.2817 7 14.6997 7.58203 14.6997 8.3C14.6997 9.01797 15.2817 9.6 15.9997 9.6Z" fill="#FD5E0F"/>
<path d="M19.4997 13.1C20.2177 13.1 20.7997 12.518 20.7997 11.8C20.7997 11.082 20.2177 10.5 19.4997 10.5C18.7817 10.5 18.1997 11.082 18.1997 11.8C18.1997 12.518 18.7817 13.1 19.4997 13.1Z" fill="#FD5E0F"/>
<path d="M9.09981 23.6C9.81778 23.6 10.3998 23.018 10.3998 22.3C10.3998 21.582 9.81778 21 9.09981 21C8.38184 21 7.7998 21.582 7.7998 22.3C7.7998 23.018 8.38184 23.6 9.09981 23.6Z" fill="#FD5E0F"/>
<path d="M12.5998 20.1C13.3178 20.1 13.8998 19.518 13.8998 18.8C13.8998 18.082 13.3178 17.5 12.5998 17.5C11.8818 17.5 11.2998 18.082 11.2998 18.8C11.2998 19.518 11.8818 20.1 12.5998 20.1Z" fill="#FD5E0F"/>
<path d="M15.9997 16.6C16.7177 16.6 17.2997 16.018 17.2997 15.3C17.2997 14.582 16.7177 14 15.9997 14C15.2817 14 14.6997 14.582 14.6997 15.3C14.6997 16.018 15.2817 16.6 15.9997 16.6Z" fill="#FD5E0F"/>
<path d="M19.4997 13.1C20.2177 13.1 20.7997 12.518 20.7997 11.8C20.7997 11.082 20.2177 10.5 19.4997 10.5C18.7817 10.5 18.1997 11.082 18.1997 11.8C18.1997 12.518 18.7817 13.1 19.4997 13.1Z" fill="#FD5E0F"/>
<path d="M1.3 2.6C2.01797 2.6 2.6 2.01797 2.6 1.3C2.6 0.58203 2.01797 0 1.3 0C0.582029 0 0 0.58203 0 1.3C0 2.01797 0.582029 2.6 1.3 2.6Z" fill="#FD5E0F"/>
<path d="M4.8 6.1C5.51797 6.1 6.1 5.51797 6.1 4.8C6.1 4.08203 5.51797 3.5 4.8 3.5C4.08203 3.5 3.5 4.08203 3.5 4.8C3.5 5.51797 4.08203 6.1 4.8 6.1Z" fill="#FD5E0F"/>
<path d="M8.3 9.6C9.01797 9.6 9.6 9.01797 9.6 8.3C9.6 7.58203 9.01797 7 8.3 7C7.58203 7 7 7.58203 7 8.3C7 9.01797 7.58203 9.6 8.3 9.6Z" fill="#FD5E0F"/>
<path d="M11.8 13.1C12.518 13.1 13.1 12.518 13.1 11.8C13.1 11.082 12.518 10.5 11.8 10.5C11.082 10.5 10.5 11.082 10.5 11.8C10.5 12.518 11.082 13.1 11.8 13.1Z" fill="#FD5E0F"/>
<path d="M1.3 23.6C2.01797 23.6 2.6 23.018 2.6 22.3C2.6 21.582 2.01797 21 1.3 21C0.582029 21 0 21.582 0 22.3C0 23.018 0.582029 23.6 1.3 23.6Z" fill="#FD5E0F"/>
<path d="M4.8 20.1C5.51797 20.1 6.1 19.518 6.1 18.8C6.1 18.082 5.51797 17.5 4.8 17.5C4.08203 17.5 3.5 18.082 3.5 18.8C3.5 19.518 4.08203 20.1 4.8 20.1Z" fill="#FD5E0F"/>
<path d="M8.3 16.6C9.01797 16.6 9.6 16.018 9.6 15.3C9.6 14.582 9.01797 14 8.3 14C7.58203 14 7 14.582 7 15.3C7 16.018 7.58203 16.6 8.3 16.6Z" fill="#FD5E0F"/>
<path d="M11.8 13.1C12.518 13.1 13.1 12.518 13.1 11.8C13.1 11.082 12.518 10.5 11.8 10.5C11.082 10.5 10.5 11.082 10.5 11.8C10.5 12.518 11.082 13.1 11.8 13.1Z" fill="#FD5E0F"/>
</svg>