<svg width="24" height="33" viewBox="0 0 24 33" fill="none" xmlns="http://www.w3.org/2000/svg">
<path d="M22.2184 14.4986H22.1668C21.2245 14.4986 20.4294 15.2806 20.4294 16.2849V17.6767C20.4294 17.9564 20.2012 18.1788 19.9141 18.1788C19.627 18.1788 19.3987 17.9564 19.3987 17.6767V15.1084C19.3987 14.1041 18.6478 13.2862 17.7055 13.2862C16.7558 13.2862 16.0122 14.1041 16.0122 15.1084V17.8273C16.0122 18.1071 15.784 18.3295 15.4969 18.3295C15.2098 18.3295 14.9816 18.1071 14.9816 17.8273V14.3551C14.9816 13.3508 14.2012 12.5617 13.2589 12.5617H13.2073C12.2871 12.5617 11.5214 13.3149 11.5214 14.2834V18.1932C11.5214 18.473 11.2932 18.6954 11.0061 18.6954C10.719 18.6954 10.4908 18.473 10.4908 18.1932V14.3982C10.4908 14.3838 10.4908 14.3695 10.4908 14.3623C10.4908 14.3336 10.4908 14.2978 10.4908 14.2691V5.39493C10.4908 4.39058 9.71039 3.57275 8.76806 3.57275C7.82573 3.57275 7.05272 4.39058 7.04536 5.38775L7.038 20.0943C7.038 20.3095 6.89812 20.496 6.69935 20.5678C6.49321 20.6395 6.26499 20.5749 6.12512 20.4171L4.32143 18.2793C3.84291 17.6982 3.14352 17.3395 2.38524 17.2821C1.64168 17.2319 0.912846 17.4901 0.36806 17.9851C0.375422 17.9995 0.36806 18.0067 0.360698 18.0067L0.00732422 18.2936L6.25763 29.9943C7.24413 31.838 9.10671 33.0001 11.1239 33.0001H18.346C21.4233 33.0001 23.9263 30.3673 23.9263 27.1391C23.9263 25.4317 23.9263 24.1475 23.9337 23.1145C23.9411 20.3525 23.9411 19.341 23.9337 16.2993C23.9263 15.2949 23.1607 14.4986 22.2184 14.4986Z" fill="#F1F1F1"/>
<path d="M4.09302 5.5742C4.38013 5.5742 4.60835 5.35181 4.60835 5.07203C4.60099 3.6229 5.39608 2.28138 6.67706 1.54964C7.96541 0.825075 9.55559 0.825075 10.8439 1.54964C12.1323 2.27421 12.92 3.61573 12.9126 5.07203C12.9126 5.35181 13.1409 5.5742 13.428 5.5742C13.7151 5.5742 13.9433 5.35181 13.9433 5.07203C13.9507 3.2642 12.9642 1.58551 11.3593 0.681597C9.75437 -0.222316 7.774 -0.222316 6.16173 0.681597C4.55682 1.58551 3.57032 3.2642 3.57768 5.07203C3.57768 5.34464 3.81326 5.5742 4.09302 5.5742Z" fill="#F1F1F1"/>
</svg>
