<svg width="44" height="44" viewBox="0 0 44 44" fill="none" xmlns="http://www.w3.org/2000/svg">
<path d="M22 0C9.84844 0 0 9.84844 0 22C0 34.1516 9.84844 44 22 44C34.1516 44 44 34.1516 44 22C44 9.84844 34.1516 0 22 0ZM15.6063 33.2578H10.2523V17.1359H15.6063V33.2578ZM12.925 14.9359H12.8906C11.0945 14.9359 9.92578 13.6984 9.92578 12.1516C9.92578 10.5703 11.1203 9.36719 12.9594 9.36719C14.7898 9.36719 15.9242 10.5703 15.9586 12.1516C15.9586 13.6984 14.7984 14.9359 12.925 14.9359ZM34.925 33.2578H29.5711V24.6383C29.5711 22.4727 28.7977 20.9945 26.8555 20.9945C25.3773 20.9945 24.4922 21.9914 24.1055 22.9539C23.968 23.2977 23.925 23.7789 23.925 24.2602V33.2578H18.5711C18.5711 33.2578 18.6398 18.6484 18.5711 17.1359H23.925V19.4219C24.6383 18.3219 25.9102 16.7578 28.7547 16.7578C32.2781 16.7578 34.925 19.0609 34.925 24.0109V33.2578Z" fill="#777777"/>
</svg>
