<svg width="44" height="44" viewBox="0 0 44 44" fill="none" xmlns="http://www.w3.org/2000/svg">
<path d="M26.2109 22C26.2109 24.3289 24.3289 26.2109 22 26.2109C19.6711 26.2109 17.7891 24.3289 17.7891 22C17.7891 19.6711 19.6711 17.7891 22 17.7891C24.3289 17.7891 26.2109 19.6711 26.2109 22Z" fill="#777777"/>
<path d="M31.8482 14.5493C31.642 13.9993 31.324 13.5008 30.9029 13.0969C30.499 12.6758 30.0006 12.3579 29.4506 12.1516C29.0037 11.9797 28.3334 11.7735 27.1045 11.7133C25.7725 11.6532 25.3686 11.636 21.9998 11.636C18.6225 11.636 18.2272 11.6446 16.8951 11.7133C15.6662 11.7735 14.9959 11.9797 14.549 12.1516C13.999 12.3579 13.5006 12.6758 13.0967 13.0969C12.6756 13.5008 12.3576 13.9993 12.1514 14.5493C11.9795 14.9961 11.7732 15.6665 11.7131 16.8954C11.6529 18.2274 11.6357 18.6227 11.6357 22.0001C11.6357 25.3774 11.6529 25.7727 11.7131 27.1047C11.7732 28.3336 11.9709 29.004 12.1514 29.4508C12.3576 30.0008 12.6756 30.4993 13.0967 30.9032C13.5006 31.3243 13.999 31.6422 14.549 31.8485C14.9959 32.0204 15.6662 32.2266 16.8951 32.2868C18.2272 32.3469 18.6225 32.3641 21.9998 32.3641C25.3772 32.3641 25.7725 32.3555 27.1045 32.2868C28.3334 32.2266 29.0037 32.029 29.4506 31.8485C30.5506 31.4274 31.4272 30.5508 31.8482 29.4508C32.0201 29.004 32.2264 28.3336 32.2865 27.1047C32.3467 25.7727 32.3639 25.3688 32.3639 22.0001C32.3639 18.6227 32.3553 18.2274 32.2865 16.8954C32.2264 15.6665 32.0201 14.9961 31.8482 14.5493ZM21.9998 28.4883C18.4162 28.4883 15.5115 25.5836 15.5115 22.0001C15.5115 18.4165 18.4162 15.5118 21.9998 15.5118C25.5834 15.5118 28.4881 18.4165 28.4881 22.0001C28.4881 25.5836 25.5834 28.4883 21.9998 28.4883ZM28.7459 16.7751C27.9123 16.7751 27.2334 16.0961 27.2334 15.2626C27.2334 14.429 27.9123 13.75 28.7459 13.75C29.5795 13.75 30.2584 14.429 30.2584 15.2626C30.2584 16.0961 29.5795 16.7751 28.7459 16.7751Z" fill="#777777"/>
<path d="M22 0C9.84844 0 0 9.84844 0 22C0 34.1516 9.84844 44 22 44C34.1516 44 44 34.1516 44 22C44 9.84844 34.1516 0 22 0ZM34.5555 27.2078C34.4953 28.5484 34.2805 29.468 33.9711 30.2758C33.318 31.9687 31.9773 33.318 30.2758 33.9711C29.4766 34.2805 28.557 34.4953 27.2078 34.5555C25.8586 34.6156 25.4289 34.6328 22 34.6328C18.5711 34.6328 18.1414 34.6156 16.7922 34.5555C15.4516 34.4953 14.532 34.2805 13.7242 33.9711C12.882 33.6531 12.1172 33.1547 11.4898 32.5102C10.8453 31.8828 10.3469 31.118 10.0289 30.2758C9.71953 29.4766 9.50469 28.557 9.44453 27.2078C9.38438 25.8586 9.36719 25.4289 9.36719 22C9.36719 18.5711 9.38438 18.1414 9.44453 16.7922C9.50469 15.4516 9.71953 14.532 10.0289 13.7242C10.3469 12.882 10.8453 12.1172 11.4898 11.4898C12.1172 10.8453 12.882 10.3469 13.7242 10.0289C14.532 9.71953 15.443 9.50469 16.7922 9.44453C18.1414 9.38438 18.5711 9.36719 22 9.36719C25.4289 9.36719 25.8586 9.38438 27.2078 9.44453C28.5484 9.50469 29.468 9.71953 30.2758 10.0289C31.118 10.3469 31.8828 10.8453 32.5102 11.4898C33.1547 12.1172 33.6531 12.882 33.9711 13.7242C34.2805 14.532 34.4953 15.443 34.5555 16.7922C34.6156 18.1414 34.6328 18.5711 34.6328 22C34.6328 25.4289 34.6156 25.8586 34.5555 27.2078Z" fill="#777777"/>
</svg>
