<svg width="160" height="63" viewBox="0 0 160 63" fill="none" xmlns="http://www.w3.org/2000/svg">
<path d="M5.1773 23.3126H0.35461C0.141844 23.3126 0 23.1696 0 22.9551V0.500621C0 0.286088 0.141844 0.143066 0.35461 0.143066H5.1773C5.39007 0.143066 5.53191 0.286088 5.53191 0.500621V23.0266C5.53191 23.2411 5.39007 23.3126 5.1773 23.3126Z" fill="#FD5E0F"/>
<path d="M39.5034 0.143066H42.1275C42.3403 0.143066 42.4821 0.286088 42.4821 0.500621V23.0266C42.4821 23.2411 42.3403 23.3841 42.1275 23.3841H37.3048C37.0921 23.3841 36.9502 23.2411 36.9502 23.0266V13.4441C36.9502 13.1581 36.7374 13.0865 36.5956 13.3011L30.78 21.8824C30.6382 22.0969 30.4254 22.0969 30.3545 21.8824L24.5389 13.3011C24.397 13.0865 24.1843 13.1581 24.1843 13.4441V23.0266C24.1843 23.2411 24.0424 23.3841 23.8296 23.3841H19.007C18.7942 23.3841 18.6523 23.2411 18.6523 23.0266V0.500621C18.6523 0.286088 18.7942 0.143066 19.007 0.143066H21.6311C21.7729 0.143066 21.9857 0.143066 22.0566 0.357599L30.3545 13.1581C30.4963 13.3726 30.7091 13.3726 30.78 13.1581L39.1488 0.357599C39.2197 0.214577 39.3616 0.143066 39.5034 0.143066Z" fill="#FD5E0F"/>
<path d="M55.8154 23.0266V0.500621C55.8154 0.286088 55.9573 0.143066 56.17 0.143066H65.3899C70.5672 0.143066 74.7516 3.57559 74.7516 8.79589C74.7516 14.0162 70.5672 17.4487 65.3899 17.4487H61.631C61.4183 17.4487 61.2764 17.5917 61.2764 17.8063V23.0266C61.2764 23.2411 61.1346 23.3841 60.9218 23.3841H56.0991C55.9573 23.3126 55.8154 23.2411 55.8154 23.0266ZM64.9644 12.586C67.5175 12.586 69.2197 11.5133 69.2197 8.79589C69.2197 6.07847 67.5175 5.07732 64.9644 5.07732H61.631C61.4183 5.07732 61.2764 5.22034 61.2764 5.43488V12.2284C61.2764 12.443 61.4183 12.586 61.631 12.586H64.9644Z" fill="#FD5E0F"/>
<path d="M91.4897 0.143066H93.6883C93.8301 0.143066 94.0429 0.214577 94.0429 0.357599L104.256 22.9551C104.327 23.1696 104.256 23.3126 104.043 23.3126H99.433C99.2911 23.3126 99.0784 23.2411 99.0784 23.0981L97.6599 20.0231C97.589 19.8801 97.4472 19.8086 97.3053 19.8086H87.8727C87.7308 19.8086 87.5181 19.8801 87.5181 20.0231L86.0996 23.0981C86.0287 23.2411 85.8869 23.3126 85.745 23.3126H81.1351C80.9223 23.3126 80.7805 23.1696 80.9223 22.9551L91.1351 0.42911C91.1351 0.214577 91.3479 0.143066 91.4897 0.143066ZM90.1422 14.9458H95.0358C95.2486 14.9458 95.3904 14.8028 95.2486 14.5883L92.8372 9.08193C92.7663 8.8674 92.4826 8.8674 92.4117 9.08193L89.9294 14.5883C89.7876 14.7313 89.9294 14.9458 90.1422 14.9458Z" fill="#FD5E0F"/>
<path d="M128.156 15.0173L132.625 15.5894C132.908 15.5894 132.837 15.8754 132.837 16.0185C132.057 20.2376 127.944 23.3841 123.05 23.3841C116.383 23.3841 111.773 18.0208 111.773 11.6563C111.773 5.29181 116.383 0 123.05 0C127.944 0 131.986 3.14648 132.837 7.36563C132.837 7.50865 132.908 7.7947 132.625 7.7947L128.156 8.36678C128.015 8.36678 127.802 8.36678 127.731 8.15225C127.234 6.79354 125.887 4.79123 122.837 4.79123C120.071 4.79123 117.234 6.93656 117.234 11.5848C117.234 16.233 120.071 18.4498 122.837 18.4498C125.887 18.4498 127.234 16.4475 127.731 15.0888C127.802 15.0173 127.944 15.0173 128.156 15.0173Z" fill="#FD5E0F"/>
<path d="M159.929 0.500621V4.71977C159.929 4.9343 159.787 5.07732 159.575 5.07732H154.043C153.83 5.07732 153.688 5.22034 153.688 5.43488V23.0981C153.688 23.3126 153.546 23.4556 153.333 23.4556H148.511C148.298 23.4556 148.156 23.3126 148.156 23.0981V5.36337C148.156 5.14883 148.014 5.00581 147.802 5.00581H142.27C142.057 5.00581 141.915 4.86279 141.915 4.64826V0.500621C141.915 0.286088 142.057 0.143066 142.27 0.143066H159.433C159.787 0.143066 159.929 0.286088 159.929 0.500621Z" fill="#FD5E0F"/>
<path d="M11.0638 45.4809L12.1986 45.6239C12.3404 45.6239 12.2695 45.7669 12.2695 45.91C11.7021 47.6977 9.43262 49.414 6.73759 49.414C2.48227 49.414 0 45.9815 0 42.2629C0 38.4728 2.55319 35.1118 6.73759 35.1118C9.43262 35.1118 11.7021 36.8996 12.2695 38.6874C12.2695 38.7589 12.3404 38.9019 12.1986 38.9019L11.0638 39.0449C10.922 39.0449 10.8511 39.1164 10.7801 38.9734C10.4965 38.1868 8.93617 36.542 6.66667 36.542C3.5461 36.542 1.48936 38.9734 1.48936 42.1914C1.48936 45.4094 3.5461 47.9123 6.66667 47.9123C8.93617 47.9123 10.4255 46.2675 10.7801 45.4809C10.8511 45.4809 10.922 45.4809 11.0638 45.4809Z" fill="#FD5E0F"/>
<path d="M32.7664 42.3344C32.7664 46.4106 30.0005 49.4855 25.9579 49.4855C21.9154 49.4855 19.1494 46.4106 19.1494 42.3344C19.1494 38.2583 21.9154 35.1833 25.9579 35.1833C30.0005 35.1833 32.7664 38.1868 32.7664 42.3344ZM20.7097 42.3344C20.7097 45.767 22.9083 48.0553 25.9579 48.0553C29.0076 48.0553 31.2062 45.767 31.2062 42.3344C31.2062 38.9019 29.0076 36.6136 25.9579 36.6136C22.9083 36.6136 20.7097 38.9019 20.7097 42.3344Z" fill="#FD5E0F"/>
<path d="M47.5885 48.1268V49.1995C47.5885 49.3425 47.5176 49.414 47.3758 49.414H40.5673C40.4254 49.414 40.3545 49.3425 40.3545 49.1995V35.3979C40.3545 35.2549 40.4254 35.1833 40.5673 35.1833H41.7729C41.9148 35.1833 41.9857 35.2549 41.9857 35.3979V47.6978C41.9857 47.8408 42.0566 47.9123 42.1985 47.9123H47.4467C47.5176 47.9838 47.5885 48.0553 47.5885 48.1268Z" fill="#FD5E0F"/>
<path d="M63.1911 48.1268V49.1995C63.1911 49.3425 63.1202 49.414 62.9783 49.414H56.1698C56.028 49.414 55.957 49.3425 55.957 49.1995V35.3979C55.957 35.2549 56.028 35.1833 56.1698 35.1833H57.3755C57.5173 35.1833 57.5882 35.2549 57.5882 35.3979V47.6978C57.5882 47.8408 57.6592 47.9123 57.801 47.9123H63.0492C63.1202 47.9838 63.1911 48.0553 63.1911 48.1268Z" fill="#FD5E0F"/>
<path d="M79.156 47.9435V49.0162C79.156 49.1592 79.0851 49.2307 78.9433 49.2307H71.2128C71.0709 49.2307 71 49.1592 71 49.0162V35.2145C71 35.0715 71.0709 35 71.2128 35H78.7305C78.8723 35 78.9433 35.0715 78.9433 35.2145V36.2872C78.9433 36.4302 78.8723 36.5017 78.7305 36.5017H72.773C72.6312 36.5017 72.5603 36.5732 72.5603 36.7163V41.3645C72.5603 41.5075 72.6312 41.579 72.773 41.579H77.0284C77.1702 41.579 77.2411 41.6505 77.2411 41.7935V42.8662C77.2411 43.0092 77.1702 43.0807 77.0284 43.0807H72.773C72.6312 43.0807 72.5603 43.1523 72.5603 43.2953V47.6574C72.5603 47.8005 72.6312 47.872 72.773 47.872H78.9433C79.0851 47.8005 79.156 47.872 79.156 47.9435Z" fill="#FD5E0F"/>
<path d="M97.2338 45.4809L98.3685 45.6239C98.5104 45.6239 98.4394 45.7669 98.4394 45.91C97.8721 47.6977 95.6026 49.414 92.9075 49.414C88.6522 49.414 86.1699 45.9815 86.1699 42.2629C86.1699 38.4728 88.7231 35.1118 92.9075 35.1118C95.6026 35.1118 97.8721 36.8996 98.4394 38.6874C98.4394 38.7589 98.5104 38.9019 98.3685 38.9019L97.2338 39.0449C97.0919 39.0449 97.021 39.1164 96.9501 38.9734C96.6664 38.1868 95.1061 36.542 92.8366 36.542C89.716 36.542 87.6593 38.9734 87.6593 42.1914C87.6593 45.4094 89.716 47.9123 92.8366 47.9123C95.1061 47.9123 96.5955 46.2675 96.9501 45.4809C97.021 45.4809 97.1628 45.4809 97.2338 45.4809Z" fill="#FD5E0F"/>
<path d="M114.822 35.3979V36.4705C114.822 36.6136 114.751 36.6851 114.61 36.6851H111.134C110.992 36.6851 110.922 36.7566 110.922 36.8996V49.1995C110.922 49.3425 110.851 49.414 110.709 49.414H109.503C109.361 49.414 109.29 49.3425 109.29 49.1995V36.8996C109.29 36.7566 109.219 36.6851 109.078 36.6851H105.602C105.461 36.6851 105.39 36.6136 105.39 36.4705V35.3979C105.39 35.2549 105.461 35.1833 105.602 35.1833H114.61C114.751 35.2549 114.822 35.3264 114.822 35.3979Z" fill="#FD5E0F"/>
<path d="M124.255 49.414H123.05C122.908 49.414 122.837 49.3425 122.837 49.1995V35.3979C122.837 35.2549 122.908 35.1833 123.05 35.1833H124.255C124.397 35.1833 124.468 35.2549 124.468 35.3979V49.1995C124.397 49.3425 124.326 49.414 124.255 49.414Z" fill="#FD5E0F"/>
<path d="M138.44 49.4141H137.731C137.66 49.4141 137.518 49.3425 137.518 49.271L131.986 35.4694C131.915 35.3264 131.986 35.2549 132.128 35.2549H133.333C133.404 35.2549 133.546 35.3264 133.546 35.3979L137.943 46.7682C138.014 46.9112 138.156 46.9112 138.227 46.7682L142.624 35.3979C142.695 35.3264 142.766 35.2549 142.837 35.2549H144.043C144.184 35.2549 144.255 35.3264 144.184 35.4694L138.653 49.271C138.653 49.3425 138.582 49.4141 138.44 49.4141Z" fill="#FD5E0F"/>
<path d="M159.645 48.1268V49.1995C159.645 49.3425 159.574 49.414 159.433 49.414H151.702C151.56 49.414 151.489 49.3425 151.489 49.1995V35.3979C151.489 35.2549 151.56 35.1833 151.702 35.1833H159.22C159.362 35.1833 159.433 35.2549 159.433 35.3979V36.4705C159.433 36.6136 159.362 36.6851 159.22 36.6851H153.262C153.12 36.6851 153.05 36.7566 153.05 36.8996V41.5478C153.05 41.6909 153.12 41.7624 153.262 41.7624H157.518C157.659 41.7624 157.73 41.8339 157.73 41.9769V43.0496C157.73 43.1926 157.659 43.2641 157.518 43.2641H153.262C153.12 43.2641 153.05 43.3356 153.05 43.4786V47.8408C153.05 47.9838 153.12 48.0553 153.262 48.0553H159.433C159.574 47.9838 159.645 48.0553 159.645 48.1268Z" fill="#FD5E0F"/>
<path d="M159.929 60.6414H0.0712891V62.0716H159.929V60.6414Z" fill="#FD5E0F"/>
</svg>
