<svg width="128" height="49" viewBox="0 0 128 49" fill="none" xmlns="http://www.w3.org/2000/svg">
<path d="M4.54376 18.3986H0.706015C0.536703 18.3986 0.423828 18.2857 0.423828 18.1164V0.338614C0.423828 0.169302 0.536703 0.056427 0.706015 0.056427H4.54376C4.71307 0.056427 4.82595 0.169302 4.82595 0.338614V18.1164C4.76951 18.2857 4.65663 18.3986 4.54376 18.3986Z" fill="white"/>
<path d="M31.8592 0.112869H33.9474C34.1167 0.112869 34.2296 0.225744 34.2296 0.395056V18.1728C34.2296 18.3422 34.1167 18.455 33.9474 18.455H30.1096C29.9403 18.455 29.8274 18.3422 29.8274 18.1728V10.6102C29.8274 10.3845 29.6581 10.328 29.5453 10.4973L24.9174 17.2698C24.8045 17.4391 24.6352 17.4391 24.5788 17.2698L19.9509 10.4973C19.838 10.328 19.6687 10.3845 19.6687 10.6102V18.1728C19.6687 18.3422 19.5558 18.455 19.3865 18.455H15.5488C15.3795 18.455 15.2666 18.3422 15.2666 18.1728V0.395056C15.2666 0.225744 15.3795 0.112869 15.5488 0.112869H17.637C17.7498 0.112869 17.9192 0.112871 17.9756 0.282183L24.5788 10.3845C24.6916 10.5538 24.861 10.5538 24.9174 10.3845L31.5206 0.282183C31.577 0.169308 31.6899 0.112869 31.8592 0.112869Z" fill="white"/>
<path d="M44.7832 18.1728V0.395056C44.7832 0.225744 44.8961 0.112869 45.0654 0.112869H52.4022C56.5222 0.112869 59.852 2.82186 59.852 6.94179C59.852 11.0617 56.5222 13.7707 52.4022 13.7707H49.4675C49.2982 13.7707 49.1853 13.8836 49.1853 14.0529V18.1728C49.1853 18.3422 49.0724 18.455 48.9031 18.455H45.0654C44.8961 18.3986 44.7832 18.2857 44.7832 18.1728ZM52.1201 9.93298C54.1518 9.93298 55.5063 9.08641 55.5063 6.94179C55.5063 4.79717 54.1518 3.95061 52.1201 3.95061H49.4111C49.2418 3.95061 49.1289 4.06348 49.1289 4.2328V9.65079C49.1289 9.8201 49.2418 9.93298 49.4111 9.93298H52.1201Z" fill="white"/>
<path d="M73.1716 0.112869H74.9212C75.034 0.112869 75.2034 0.169308 75.2034 0.282183L83.3303 18.0599C83.3868 18.2293 83.3303 18.3421 83.161 18.3421H79.4926C79.3797 18.3421 79.2104 18.2857 79.2104 18.1728L78.0817 15.746C78.0252 15.6331 77.9123 15.5767 77.7995 15.5767H70.3497C70.2369 15.5767 70.0676 15.6331 70.0676 15.746L68.9388 18.1728C68.8824 18.2857 68.7695 18.3421 68.6566 18.3421H64.9882C64.8189 18.3421 64.706 18.2293 64.8189 18.0599L72.9459 0.282183C72.9459 0.169308 73.0587 0.112869 73.1716 0.112869ZM72.0993 11.7954H75.9935C76.1628 11.7954 76.2757 11.6825 76.1628 11.5132L74.2439 7.16754C74.1875 6.99823 73.9617 6.99823 73.9053 7.16754L71.93 11.5132C71.8735 11.6261 71.93 11.7954 72.0993 11.7954Z" fill="white"/>
<path d="M102.35 11.8518L105.905 12.3033C106.131 12.3033 106.074 12.5291 106.074 12.642C105.454 15.9718 102.18 18.455 98.286 18.455C92.9809 18.455 89.3125 14.2222 89.3125 9.19929C89.3125 4.17636 92.9809 0 98.286 0C102.18 0 105.397 2.48324 106.074 5.81305C106.074 5.92592 106.131 6.15168 105.905 6.15168L102.35 6.60318C102.237 6.60318 102.067 6.60317 102.011 6.43386C101.616 5.36155 100.544 3.78131 98.1167 3.78131C95.9157 3.78131 93.6582 5.47443 93.6582 9.14286C93.6582 12.8113 95.9157 14.5608 98.1167 14.5608C100.544 14.5608 101.616 12.9806 102.011 11.9083C102.067 11.7954 102.237 11.7954 102.35 11.8518Z" fill="white"/>
<path d="M127.634 0.395056V3.72486C127.634 3.89417 127.521 4.00705 127.352 4.00705H122.95C122.78 4.00705 122.667 4.11992 122.667 4.28924V18.2293C122.667 18.3986 122.555 18.5115 122.385 18.5115H118.547C118.378 18.5115 118.265 18.3986 118.265 18.2293V4.28924C118.265 4.11992 118.152 4.00705 117.983 4.00705H113.581C113.412 4.00705 113.299 3.89417 113.299 3.72486V0.395056C113.299 0.225744 113.412 0.112869 113.581 0.112869H127.239C127.577 0.112869 127.634 0.225744 127.634 0.395056Z" fill="white"/>
<path d="M9.17142 35.8942L10.0744 36.007C10.1873 36.007 10.1309 36.1199 10.1309 36.2328C9.67936 37.6437 7.87336 38.9982 5.72874 38.9982C2.3425 38.9982 0.367188 36.2892 0.367188 33.3545C0.367188 30.3633 2.39893 27.7108 5.72874 27.7108C7.87336 27.7108 9.67936 29.1217 10.1309 30.5326C10.1309 30.5891 10.1873 30.7019 10.0744 30.7019L9.17142 30.8148C9.05855 30.8148 9.00211 30.8712 8.94567 30.7584C8.71992 30.1376 7.4783 28.8395 5.6723 28.8395C3.18906 28.8395 1.55237 30.7584 1.55237 33.2981C1.55237 35.8377 3.18906 37.813 5.6723 37.813C7.4783 37.813 8.66348 36.515 8.94567 35.8942C9.00211 35.8377 9.05855 35.8942 9.17142 35.8942Z" fill="white"/>
<path d="M26.4414 33.4109C26.4414 36.6279 24.2404 39.0547 21.0235 39.0547C17.8065 39.0547 15.6055 36.6279 15.6055 33.4109C15.6055 30.194 17.8065 27.7672 21.0235 27.7672C24.2404 27.7672 26.4414 30.1376 26.4414 33.4109ZM16.8471 33.4109C16.8471 36.1199 18.5966 37.9259 21.0235 37.9259C23.4503 37.9259 25.1998 36.1199 25.1998 33.4109C25.1998 30.7019 23.4503 28.8959 21.0235 28.8959C18.5966 28.8959 16.8471 30.7019 16.8471 33.4109Z" fill="white"/>
<path d="M38.2371 37.9824V38.8289C38.2371 38.9418 38.1806 38.9982 38.0678 38.9982H32.6498C32.5369 38.9982 32.4805 38.9418 32.4805 38.8289V27.9365C32.4805 27.8236 32.5369 27.7672 32.6498 27.7672H33.6092C33.7221 27.7672 33.7785 27.8236 33.7785 27.9365V37.6437C33.7785 37.7566 33.835 37.813 33.9478 37.813H38.1242C38.1806 37.813 38.2371 37.9259 38.2371 37.9824Z" fill="white"/>
<path d="M50.6531 37.9824V38.8289C50.6531 38.9418 50.5967 38.9982 50.4838 38.9982H45.0658C44.9529 38.9982 44.8965 38.9418 44.8965 38.8289V27.9365C44.8965 27.8236 44.9529 27.7672 45.0658 27.7672H46.0252C46.1381 27.7672 46.1945 27.8236 46.1945 27.9365V37.6437C46.1945 37.7566 46.251 37.813 46.3639 37.813H50.5402C50.5967 37.813 50.6531 37.9259 50.6531 37.9824Z" fill="white"/>
<path d="M63.1817 37.9824V38.8289C63.1817 38.9418 63.1253 38.9982 63.0124 38.9982H56.8607C56.7478 38.9982 56.6914 38.9418 56.6914 38.8289V27.9365C56.6914 27.8236 56.7478 27.7672 56.8607 27.7672H62.8431C62.956 27.7672 63.0124 27.8236 63.0124 27.9365V28.7831C63.0124 28.8959 62.956 28.9524 62.8431 28.9524H58.1023C57.9895 28.9524 57.933 29.0088 57.933 29.1217V32.8466C57.933 32.9594 57.9895 33.0159 58.1023 33.0159H61.4886C61.6015 33.0159 61.6579 33.0723 61.6579 33.1852V34.0317C61.6579 34.1446 61.6015 34.2011 61.4886 34.2011H58.1023C57.9895 34.2011 57.933 34.2575 57.933 34.3704V37.813C57.933 37.9259 57.9895 37.9824 58.1023 37.9824H63.0124C63.1253 37.813 63.1817 37.9259 63.1817 37.9824Z" fill="white"/>
<path d="M77.7427 35.8942L78.6457 36.007C78.7586 36.007 78.7021 36.1199 78.7021 36.2328C78.2506 37.6437 76.4446 38.9982 74.3 38.9982C70.9138 38.9982 68.9385 36.2892 68.9385 33.3545C68.9385 30.3633 70.9702 27.7108 74.3 27.7108C76.4446 27.7108 78.2506 29.1217 78.7021 30.5326C78.7021 30.5891 78.7586 30.7019 78.6457 30.7019L77.7427 30.8148C77.6298 30.8148 77.5734 30.8712 77.5169 30.7584C77.2912 30.1376 76.0496 28.8395 74.2436 28.8395C71.7603 28.8395 70.1237 30.7584 70.1237 33.2981C70.1237 35.8377 71.7603 37.813 74.2436 37.813C76.0496 37.813 77.2348 36.515 77.5169 35.8942C77.5734 35.8377 77.6863 35.8942 77.7427 35.8942Z" fill="white"/>
<path d="M91.7962 27.9365V28.7831C91.7962 28.8959 91.7398 28.9524 91.6269 28.9524H88.8615C88.7486 28.9524 88.6922 29.0088 88.6922 29.1217V38.8289C88.6922 38.9418 88.6357 38.9982 88.5228 38.9982H87.5634C87.4505 38.9982 87.3941 38.9418 87.3941 38.8289V29.1217C87.3941 29.0088 87.3377 28.9524 87.2248 28.9524H84.4594C84.3465 28.9524 84.29 28.8959 84.29 28.7831V27.9365C84.29 27.8236 84.3465 27.7672 84.4594 27.7672H91.6269C91.7398 27.8236 91.7962 27.8801 91.7962 27.9365Z" fill="white"/>
<path d="M99.2459 38.9982H98.2865C98.1736 38.9982 98.1172 38.9418 98.1172 38.8289V27.9365C98.1172 27.8236 98.1736 27.7672 98.2865 27.7672H99.2459C99.3588 27.7672 99.4152 27.8236 99.4152 27.9365V38.8289C99.4152 38.9418 99.3024 38.9982 99.2459 38.9982Z" fill="white"/>
<path d="M110.533 38.9982H109.969C109.912 38.9982 109.799 38.9418 109.799 38.8854L105.397 27.9929C105.341 27.8801 105.397 27.8236 105.51 27.8236H106.469C106.526 27.8236 106.639 27.8801 106.639 27.9365L110.138 36.91C110.194 37.0229 110.307 37.0229 110.364 36.91L113.863 27.9365C113.919 27.8801 113.976 27.8236 114.032 27.8236H114.991C115.104 27.8236 115.161 27.8801 115.104 27.9929L110.702 38.8854C110.702 38.9418 110.646 38.9982 110.533 38.9982Z" fill="white"/>
<path d="M127.407 37.9824V38.8289C127.407 38.9418 127.351 38.9982 127.238 38.9982H121.086C120.973 38.9982 120.917 38.9418 120.917 38.8289V27.9365C120.917 27.8236 120.973 27.7672 121.086 27.7672H127.069C127.182 27.7672 127.238 27.8236 127.238 27.9365V28.7831C127.238 28.8959 127.182 28.9524 127.069 28.9524H122.328C122.215 28.9524 122.159 29.0088 122.159 29.1217V32.8466C122.159 32.9594 122.215 33.0159 122.328 33.0159H125.714C125.827 33.0159 125.883 33.0723 125.883 33.1852V34.0317C125.883 34.1446 125.827 34.2011 125.714 34.2011H122.328C122.215 34.2011 122.159 34.2575 122.159 34.3704V37.813C122.159 37.9259 122.215 37.9824 122.328 37.9824H127.238C127.351 37.813 127.407 37.9259 127.407 37.9824Z" fill="white"/>
<path d="M127.69 47.8589H0.480469V48.9877H127.69V47.8589Z" fill="white"/>
</svg>
