<svg width="44" height="44" viewBox="0 0 44 44" fill="none" xmlns="http://www.w3.org/2000/svg">
<path d="M22 0C9.84844 0 0 9.84844 0 22C0 34.1516 9.84844 44 22 44C34.1516 44 44 34.1516 44 22C44 9.84844 34.1516 0 22 0ZM32.0461 17.1531C32.0547 17.368 32.0633 17.5828 32.0633 17.8062C32.0633 24.475 26.9844 32.175 17.6945 32.175C14.8414 32.175 12.1859 31.3414 9.95156 29.9062C10.3469 29.9492 10.7508 29.975 11.1547 29.975C13.518 29.975 15.7008 29.1672 17.4281 27.8094C15.2195 27.7664 13.3547 26.3055 12.7102 24.3031C13.0195 24.3633 13.3375 24.3977 13.6555 24.3977C14.1195 24.3977 14.5664 24.3375 14.9875 24.2172C12.6758 23.7531 10.9398 21.7164 10.9398 19.2672C10.9398 19.2414 10.9398 19.2242 10.9398 19.1984C11.6188 19.5766 12.4008 19.8086 13.2258 19.8258C11.868 18.9234 10.9828 17.3766 10.9828 15.6234C10.9828 14.6953 11.232 13.8273 11.6703 13.0883C14.1625 16.1477 17.8836 18.15 22.0773 18.3648C21.9914 17.9953 21.9484 17.6086 21.9484 17.2133C21.9484 14.4289 24.2086 12.1602 27.0016 12.1602C28.4539 12.1602 29.7688 12.7703 30.6883 13.7586C31.8398 13.5352 32.9227 13.1141 33.8937 12.5297C33.5156 13.707 32.7164 14.6953 31.6766 15.3227C32.6992 15.2023 33.6703 14.9273 34.5727 14.5234C33.8852 15.5547 33.0344 16.4398 32.0461 17.1531Z" fill="#777777"/>
</svg>
