<svg xmlns="http://www.w3.org/2000/svg" width="1920" height="612" viewBox="0 0 1920 612"><g><g><path fill="#dff6ff" d="M0 12s65.582 68.648 227 63c85.728-3 192.025-109.566 349.5-63C785 73.653 830.453-19.32 1085.975 27.355 1385.675 82.099 1427.448-43.571 1598.5 42c212 106.055 321.5-10 321.5-10v380s-49.751 133.746-221 133c-194.591-.848-124 38.963-272 51-129.52 10.534-139.966-39.212-273.179-17.927C977.67 606.22 780.274 627.027 600 595c-102.542-18.218-212.177-30.485-326.775-38.98C122.907 544.878 0 582 0 582z"/></g></g></svg>